<?xml version="1.0" encoding="utf-8"?>
<!-- Generator: Adobe Illustrator 21.1.0, SVG Export Plug-In . SVG Version: 6.00 Build 0)  -->
<svg version="1.1" id="Layer_1" xmlns="http://www.w3.org/2000/svg" xmlns:xlink="http://www.w3.org/1999/xlink" x="0px" y="0px"
	 viewBox="0 0 388 112" style="enable-background:new 0 0 388 112;" xml:space="preserve">
<style type="text/css">
	.st0{fill:url(#SVGID_1_);}
	.st1{opacity:0.8;fill:#FFFFFF;enable-background:new    ;}
	.st2{fill:#FFFFFF;fill-opacity:0;}
	.st3{fill:#231F20;}
	.st4{fill:#FFFFFF;}
	.st5{fill:url(#SVGID_2_);}
	.st6{opacity:0;fill:#FFFFFF;}
	.st7{opacity:0.8;fill:#FFFFFF;}
	.st8{fill:none;stroke:#FFFFFF;stroke-width:4;stroke-miterlimit:10;}
</style>
<g>
	<rect x="1.9" y="1.8" class="st8" width="108.3" height="108.3"/>
	<polygon class="st6" points="45.3,22.3 90.5,90 16.6,89.9 	"/>
	<polygon class="st4" points="46.9,20.5 77.2,33.2 101.2,68.5 91.6,87.8 	"/>
	<g>
		<path class="st4" d="M135.6,31.7v8.8h-3.8V17.9h8.4c4.3,0,7.2,2.9,7.2,6.9c0,4-2.9,6.9-7.2,6.9H135.6z M139.6,28.3
			c2.4,0,3.9-1.3,3.9-3.5c0-2.2-1.5-3.5-3.9-3.5h-4v7H139.6z"/>
		<path class="st4" d="M157.6,31.6h-2.8v8.9h-3.9V17.9h8.7c4.4,0,7.1,3,7.1,6.9c0,3.2-1.9,5.7-5.1,6.4l5.1,9.3h-4.3L157.6,31.6z
			 M158.9,28.3c2.4,0,3.9-1.4,3.9-3.4c0-2.1-1.5-3.5-3.9-3.5h-4.1v6.9H158.9z"/>
		<path class="st4" d="M170.8,40.6V17.9h3.9v22.6H170.8z"/>
		<path class="st4" d="M191.5,24.3c-0.2-1.4-1.4-3.5-4.4-3.5c-2.3,0-3.9,1.5-3.9,3.3c0,1.4,0.9,2.5,2.6,2.9l3.3,0.7
			c4,0.8,6.1,3.3,6.1,6.5c0,3.5-2.8,6.9-8,6.9c-5.7,0-8.4-3.7-8.7-7l3.6-1c0.2,2.4,1.9,4.5,5.2,4.5c2.7,0,4.1-1.4,4.1-3.1
			c0-1.5-1.1-2.6-3-3.1l-3.2-0.7c-3.4-0.7-5.7-3-5.7-6.3c0-3.8,3.5-6.9,7.7-6.9c5.3,0,7.4,3.3,7.9,5.8L191.5,24.3z"/>
		<path class="st4" d="M220.3,40.6V23.9l-7,16.6h-3.3l-7-16.6v16.6h-3.7V17.9h5.1l7.3,17.3l7.2-17.3h5.2v22.6H220.3z"/>
		<path class="st4" d="M138.3,52.2c3,0,4.9,1.9,4.9,4.5c0,3.5-2.7,5.7-6.3,5.7h-3.3l-1.4,6.6h-2.8l3.5-16.8H138.3z M135.2,54.6
			l-1.1,5.2h2.7c2,0,3.4-1,3.5-3c0-1.3-0.9-2.2-2.6-2.2H135.2z"/>
		<path class="st4" d="M150.5,60.1c-1.6,0-3.1,0.9-3.6,3.5l-1.2,5.4H143l2-9.5c0.2-1.1,0.3-1.9,0.3-2h2.6c0,0.3,0,1.1-0.2,1.6
			c0.9-1.3,2.4-1.7,3.5-1.7c0.3,0,0.6,0,0.8,0.1l-0.6,2.8C151.2,60.1,150.8,60.1,150.5,60.1z"/>
		<path class="st4" d="M154.9,63.9c0,0.1,0,0.2,0,0.3c0,1.6,1.1,2.8,2.7,2.8c1.5,0,2.5-0.8,2.9-1.7l2.1,1.2
			c-0.8,1.5-2.6,2.9-5.1,2.9c-2.9,0-5.3-1.9-5.3-5.3c0-4.3,3.1-7,6.2-7c3.2,0,4.9,2,4.9,4.8c0,0.8-0.2,1.6-0.3,2.1H154.9z
			 M160.7,61.9c0,0,0-0.2,0-0.4c0-1-0.6-2.2-2.3-2.2c-1.7,0-2.8,1.2-3.2,2.6H160.7z"/>
		<path class="st4" d="M171.7,68.9l1.5-7c0-0.2,0.1-0.5,0.1-0.7c0-1-0.6-1.8-1.8-1.8c-1.4,0-2.2,1.1-2.6,2.6l-1.5,6.9h-2.7l2-9.5
			c0.2-1.1,0.3-1.9,0.3-2h2.6c0,0.2,0,0.7-0.1,1.2c0.8-1,1.9-1.5,3.2-1.5c1.4,0,2.5,0.7,3,1.8c1.1-1.4,2.5-1.8,3.9-1.8
			c1.9,0,3.5,1.3,3.5,3.5c0,0.4,0,0.8-0.1,1.1l-1.5,7.2h-2.7l1.5-7c0-0.2,0.1-0.4,0.1-0.7c0-1-0.6-1.8-1.8-1.8
			c-1.4,0-2.2,1.1-2.6,2.6l-1.5,6.9H171.7z"/>
		<path class="st4" d="M197.4,57.4l-1.9,8.8c-0.1,0.7-0.2,1.4-0.2,2.2c0,0.1,0,0.3,0,0.6h-2.6c0-0.2,0-0.3,0-0.5c0-0.3,0-0.4,0-0.9
			c-0.7,0.9-1.7,1.6-3.2,1.6c-2.9,0-4.6-2.2-4.6-5.1c0-3.8,2.5-7,5.9-7c2.1,0,3.1,0.9,3.5,1.7l0.3-1.4H197.4z M187.8,64
			c0,1.7,0.9,2.8,2.5,2.8c1.8,0,3.4-1.9,3.4-4.6c0-1.6-0.8-2.7-2.4-2.7C188.9,59.5,187.8,61.9,187.8,64z"/>
		<path class="st4" d="M199.8,64.9l1.1-5.1h-2.1l0.5-2.4h0.4c1.3,0,2-0.7,2.3-1.9l0.4-1.7h2.5l-0.8,3.5h2.3l-0.5,2.4h-2.3l-1.1,5.4
			c0,0.2-0.1,0.4-0.1,0.5c0,0.5,0.3,1,1.3,1c0.3,0,0.5,0,0.8-0.1l-0.4,2.2c-0.2,0.1-0.7,0.2-1.4,0.2c-1.9,0-3-1-3-2.7
			C199.6,66,199.6,65.6,199.8,64.9z"/>
		<path class="st4" d="M211.6,57.4l-1.4,6.6c-0.1,0.3-0.1,0.6-0.1,0.9c0,1.1,0.5,1.9,1.9,1.9c1.5,0,2.4-1.3,2.7-2.7l1.4-6.7h2.7
			l-1.8,8.9c-0.1,0.7-0.3,1.4-0.3,2.1c0,0.1,0,0.3,0,0.5H214c0-0.1,0-0.4,0-0.7c0-0.2,0-0.4,0-0.6c-0.7,1-1.9,1.5-3,1.5
			c-2.4,0-3.8-1.6-3.8-3.8c0-0.4,0-0.8,0.1-1.3l1.4-6.7H211.6z"/>
		<path class="st4" d="M227.4,60.1c-1.6,0-3.1,0.9-3.6,3.5l-1.2,5.4h-2.7l2-9.5c0.2-1.1,0.3-1.9,0.3-2h2.6c0,0.3,0,1.1-0.2,1.6
			c0.9-1.3,2.4-1.7,3.5-1.7c0.3,0,0.6,0,0.8,0.1l-0.6,2.8C228,60.1,227.7,60.1,227.4,60.1z"/>
		<path class="st4" d="M231.7,63.9c0,0.1,0,0.2,0,0.3c0,1.6,1.1,2.8,2.7,2.8c1.5,0,2.5-0.8,2.9-1.7l2.1,1.2
			c-0.8,1.5-2.6,2.9-5.1,2.9c-2.9,0-5.3-1.9-5.3-5.3c0-4.3,3.1-7,6.2-7c3.2,0,4.9,2,4.9,4.8c0,0.8-0.2,1.6-0.3,2.1H231.7z
			 M237.6,61.9c0,0,0-0.2,0-0.4c0-1-0.6-2.2-2.3-2.2c-1.7,0-2.8,1.2-3.2,2.6H237.6z"/>
		<path class="st4" d="M247.9,68.9l3.5-16.8h2.9l-3.5,16.8H247.9z"/>
		<path class="st4" d="M262,68.9l1.5-6.8c0-0.3,0.1-0.5,0.1-0.7c0-1.2-0.7-1.9-1.9-1.9c-1.6,0-2.5,1.3-2.8,2.7l-1.4,6.7h-2.7l2-9.5
			c0.2-1.1,0.3-1.9,0.3-2h2.6c0,0.1,0,0.8-0.1,1.2c0.8-1.1,2.1-1.5,3.4-1.5c2.2,0,3.5,1.5,3.5,3.6c0,0.4,0,0.9-0.1,1.3l-1.5,7H262z"
			/>
		<path class="st4" d="M273.2,59.8l-1.9,9.2h-2.8l1.9-9.2h-1.9l0.5-2.4h2l0.4-2.1c0.6-3,2.6-3.6,4.3-3.6c0.9,0,1.6,0.3,1.7,0.4
			l-0.5,2.3c0,0-0.4-0.2-1-0.2c-0.9,0-1.7,0.5-1.9,1.7l-0.4,1.6h2.5l-0.5,2.4H273.2z"/>
		<path class="st4" d="M288.7,57.4l-1.9,8.8c-0.1,0.7-0.2,1.4-0.2,2.2c0,0.1,0,0.3,0,0.6H284c0-0.2,0-0.3,0-0.5c0-0.3,0-0.4,0-0.9
			c-0.7,0.9-1.7,1.6-3.2,1.6c-2.9,0-4.6-2.2-4.6-5.1c0-3.8,2.5-7,5.9-7c2.1,0,3.1,0.9,3.5,1.7l0.3-1.4H288.7z M279,64
			c0,1.7,0.9,2.8,2.5,2.8c1.8,0,3.4-1.9,3.4-4.6c0-1.6-0.8-2.7-2.4-2.7C280.2,59.5,279,61.9,279,64z"/>
		<path class="st4" d="M297,68.9l1.5-6.8c0-0.3,0.1-0.5,0.1-0.7c0-1.2-0.7-1.9-1.9-1.9c-1.6,0-2.5,1.3-2.8,2.7l-1.4,6.7h-2.7l2-9.5
			c0.2-1.1,0.3-1.9,0.3-2h2.6c0,0.1,0,0.8-0.1,1.2c0.8-1.1,2.1-1.5,3.4-1.5c2.2,0,3.5,1.5,3.5,3.6c0,0.4,0,0.9-0.1,1.3l-1.5,7H297z"
			/>
		<path class="st4" d="M304.2,64.9l1.1-5.1h-2.1l0.5-2.4h0.4c1.3,0,2-0.7,2.3-1.9l0.4-1.7h2.5l-0.8,3.5h2.3l-0.5,2.4H308l-1.1,5.4
			c0,0.2-0.1,0.4-0.1,0.5c0,0.5,0.3,1,1.3,1c0.3,0,0.5,0,0.8-0.1l-0.4,2.2c-0.2,0.1-0.7,0.2-1.4,0.2c-1.9,0-3-1-3-2.7
			C304.1,66,304.1,65.6,304.2,64.9z"/>
		<path class="st4" d="M313.2,64.9c0,1.2,0.7,2.2,2.1,2.2c1.1,0,1.6-0.7,1.6-1.3c0-0.5-0.3-0.9-1-1.2l-1.5-0.6
			c-1.6-0.7-2.3-1.8-2.3-3.1c0-2,1.7-3.8,4.3-3.8c3.3,0,4.1,2.2,4.2,3.4l-2.4,0.5c0-0.7-0.4-1.8-2-1.8c-1,0-1.6,0.6-1.6,1.3
			c0,0.6,0.3,0.9,0.8,1.1l1.5,0.7c1.7,0.7,2.5,1.9,2.5,3.3c0,1.7-1.3,3.7-4.4,3.7c-3.6,0-4.4-2.6-4.4-3.9L313.2,64.9z"/>
		<path class="st4" d="M325.1,52c1.1,0,1.8,0.8,1.8,1.9c0,2.4-2.1,4.6-4.6,4.7l0.3-1.3c1.1-0.1,2.3-1,2.5-2.1c0,0-0.3,0.1-0.5,0.1
			c-0.9,0-1.5-0.6-1.5-1.4C323.1,52.8,324,52,325.1,52z"/>
		<path class="st4" d="M341.3,64.5c0-0.8-0.4-1.6-1.6-2.1l-2.1-0.9c-2-0.9-3.2-2.3-3.2-4.4c0-3,2.6-5.2,5.8-5.2c4.3,0,5.6,3,5.6,4.8
			l-2.7,0.5c0-0.8-0.4-2.8-3.1-2.8c-1.8,0-2.8,1.1-2.8,2.4c0,1,0.6,1.7,1.4,2l2.1,0.9c2.4,1.1,3.4,2.6,3.4,4.5
			c0,2.6-2.2,5.1-5.8,5.1c-4.5,0-6.2-3.1-6.2-5.5c0-0.1,0-0.3,0-0.4l2.7-0.5c0,0.2,0,0.3,0,0.5c0,1.7,1,3.4,3.5,3.4
			C340.2,66.8,341.3,65.8,341.3,64.5z"/>
		<path class="st4" d="M351.4,63.9l-2,1.7l-0.7,3.3H346l3.6-17.1h2.7l-2.1,10l5.1-4.4h3.9l-5.7,4.8l3.3,6.7h-3L351.4,63.9z"/>
		<path class="st4" d="M358.8,68.9l2.5-11.5h2.7l-2.5,11.5H358.8z M363.6,51.6c0.9,0,1.6,0.7,1.6,1.6c0,1.1-1,2-2,2
			c-0.9,0-1.6-0.7-1.6-1.6C361.7,52.4,362.6,51.6,363.6,51.6z"/>
		<path class="st4" d="M365.2,68.9l3.6-17.1h2.7l-3.6,17.1H365.2z"/>
		<path class="st4" d="M371.4,68.9l3.6-17.1h2.7l-3.6,17.1H371.4z"/>
		<path class="st4" d="M379.8,64.9c0,1.2,0.7,2.2,2.1,2.2c1.1,0,1.6-0.7,1.6-1.3c0-0.5-0.3-0.9-1-1.2l-1.5-0.6
			c-1.6-0.7-2.3-1.8-2.3-3.1c0-2,1.7-3.8,4.3-3.8c3.3,0,4.1,2.2,4.2,3.4l-2.4,0.5c0-0.7-0.4-1.8-2-1.8c-1,0-1.6,0.6-1.6,1.3
			c0,0.6,0.3,0.9,0.8,1.1l1.5,0.7c1.7,0.7,2.5,1.9,2.5,3.3c0,1.7-1.3,3.7-4.4,3.7c-3.6,0-4.4-2.6-4.4-3.9L379.8,64.9z"/>
		<path class="st4" d="M129.1,97.3l2.5-11.5h2.7l-2.5,11.5H129.1z M133.9,79.9c0.9,0,1.6,0.7,1.6,1.6c0,1.1-1,2-2,2
			c-0.9,0-1.6-0.7-1.6-1.6C132,80.8,132.9,79.9,133.9,79.9z"/>
		<path class="st4" d="M142.8,97.3l1.5-6.8c0-0.3,0.1-0.5,0.1-0.7c0-1.2-0.7-1.9-1.9-1.9c-1.6,0-2.5,1.3-2.8,2.7l-1.4,6.7h-2.7
			l2-9.5c0.2-1.1,0.3-1.9,0.3-2h2.6c0,0.1,0,0.8-0.1,1.2c0.8-1.1,2.1-1.5,3.4-1.5c2.2,0,3.5,1.5,3.5,3.6c0,0.4,0,0.9-0.1,1.3l-1.5,7
			H142.8z"/>
		<path class="st4" d="M170.6,97.3l2.6-12.2l-7.6,12.2h-2.2l-2.8-12.1L158,97.3h-2.7l3.5-16.8h3.4l2.9,12.7l7.8-12.7h4l-3.6,16.8
			H170.6z"/>
		<path class="st4" d="M189.7,85.8l-1.9,8.8c-0.1,0.7-0.2,1.4-0.2,2.2c0,0.1,0,0.3,0,0.6h-2.6c0-0.2,0-0.3,0-0.5c0-0.3,0-0.4,0-0.9
			c-0.7,0.9-1.7,1.6-3.2,1.6c-2.9,0-4.6-2.2-4.6-5.1c0-3.8,2.5-7,5.9-7c2.1,0,3.1,0.9,3.5,1.7l0.3-1.4H189.7z M180.1,92.4
			c0,1.7,0.9,2.8,2.5,2.8c1.8,0,3.4-1.9,3.4-4.6c0-1.6-0.8-2.7-2.4-2.7C181.3,87.9,180.1,90.3,180.1,92.4z"/>
		<path class="st4" d="M192.1,93.3l1.1-5.1h-2.1l0.5-2.4h0.4c1.3,0,2-0.7,2.3-1.9l0.4-1.7h2.5l-0.8,3.5h2.3l-0.5,2.4h-2.3l-1.1,5.4
			c0,0.2-0.1,0.4-0.1,0.5c0,0.5,0.3,1,1.3,1c0.3,0,0.5,0,0.8-0.1l-0.4,2.2c-0.2,0.1-0.7,0.2-1.4,0.2c-1.9,0-3-1-3-2.7
			C191.9,94.4,192,93.9,192.1,93.3z"/>
		<path class="st4" d="M206.4,97.3l1.5-6.8c0-0.3,0.1-0.5,0.1-0.7c0-1.2-0.7-1.9-1.9-1.9c-1.6,0-2.5,1.3-2.8,2.7l-1.4,6.7h-2.7
			l3.6-17.1h2.7l-1.4,6.6c0.8-0.9,1.9-1.3,3.1-1.3c2.2,0,3.6,1.4,3.6,3.5c0,0.4,0,0.9-0.1,1.2l-1.5,7.1H206.4z"/>
		<path class="st4" d="M215.3,92.3c0,0.1,0,0.2,0,0.3c0,1.6,1.1,2.8,2.7,2.8c1.5,0,2.5-0.8,2.9-1.7l2.1,1.2
			c-0.8,1.5-2.6,2.9-5.1,2.9c-2.9,0-5.3-1.9-5.3-5.3c0-4.3,3.1-7,6.2-7c3.2,0,4.9,2,4.9,4.8c0,0.8-0.2,1.6-0.3,2.1H215.3z
			 M221.1,90.3c0,0,0-0.2,0-0.4c0-1-0.6-2.2-2.3-2.2c-1.7,0-2.8,1.2-3.2,2.6H221.1z"/>
		<path class="st4" d="M232.1,97.3l1.5-7c0-0.2,0.1-0.5,0.1-0.7c0-1-0.6-1.8-1.8-1.8c-1.4,0-2.2,1.1-2.6,2.6l-1.5,6.9h-2.7l2-9.5
			c0.2-1.1,0.3-1.9,0.3-2h2.6c0,0.2,0,0.7-0.1,1.2c0.8-1,1.9-1.5,3.2-1.5c1.4,0,2.5,0.7,3,1.8c1.1-1.4,2.5-1.8,3.9-1.8
			c1.9,0,3.5,1.3,3.5,3.5c0,0.4,0,0.8-0.1,1.1l-1.5,7.2h-2.7l1.5-7c0-0.2,0.1-0.4,0.1-0.7c0-1-0.6-1.8-1.8-1.8
			c-1.4,0-2.2,1.1-2.6,2.6l-1.5,6.9H232.1z"/>
		<path class="st4" d="M257.8,85.8l-1.9,8.8c-0.1,0.7-0.2,1.4-0.2,2.2c0,0.1,0,0.3,0,0.6h-2.6c0-0.2,0-0.3,0-0.5c0-0.3,0-0.4,0-0.9
			c-0.7,0.9-1.7,1.6-3.2,1.6c-2.9,0-4.6-2.2-4.6-5.1c0-3.8,2.5-7,5.9-7c2.1,0,3.1,0.9,3.5,1.7l0.3-1.4H257.8z M248.2,92.4
			c0,1.7,0.9,2.8,2.5,2.8c1.8,0,3.4-1.9,3.4-4.6c0-1.6-0.8-2.7-2.4-2.7C249.3,87.9,248.2,90.3,248.2,92.4z"/>
		<path class="st4" d="M260.2,93.3l1.1-5.1h-2.1l0.5-2.4h0.4c1.3,0,2-0.7,2.3-1.9l0.4-1.7h2.5l-0.8,3.5h2.3l-0.5,2.4H264l-1.1,5.4
			c0,0.2-0.1,0.4-0.1,0.5c0,0.5,0.3,1,1.3,1c0.3,0,0.5,0,0.8-0.1l-0.4,2.2c-0.2,0.1-0.7,0.2-1.4,0.2c-1.9,0-3-1-3-2.7
			C260,94.4,260,93.9,260.2,93.3z"/>
		<path class="st4" d="M267.1,97.3l2.5-11.5h2.7l-2.5,11.5H267.1z M271.9,79.9c0.9,0,1.6,0.7,1.6,1.6c0,1.1-1,2-2,2
			c-0.9,0-1.6-0.7-1.6-1.6C269.9,80.8,270.9,79.9,271.9,79.9z"/>
		<path class="st4" d="M282.3,90c-0.2-1.1-1-2.1-2.6-2.1c-1.7,0-3.5,1.4-3.5,4.3c0,1.8,1.1,3,2.8,3c1.5,0,2.4-1,2.9-1.9l2.3,0.9
			c-0.9,1.8-2.6,3.5-5.3,3.5c-3.3,0-5.4-2.3-5.4-5.4c0-4.1,3-6.9,6.4-6.9c3.1,0,4.5,2,4.9,3.8L282.3,90z"/>
		<path class="st4" d="M287.6,93.3c0,1.2,0.7,2.2,2.1,2.2c1.1,0,1.6-0.7,1.6-1.3c0-0.5-0.3-0.9-1-1.2l-1.5-0.6
			c-1.6-0.7-2.3-1.8-2.3-3.1c0-2,1.7-3.8,4.3-3.8c3.3,0,4.1,2.2,4.2,3.4l-2.4,0.5c0-0.7-0.4-1.8-2-1.8c-1,0-1.6,0.6-1.6,1.3
			c0,0.6,0.3,0.9,0.8,1.1l1.5,0.7c1.7,0.7,2.5,1.9,2.5,3.3c0,1.7-1.3,3.7-4.4,3.7c-3.6,0-4.4-2.6-4.4-3.9L287.6,93.3z"/>
	</g>
	<polygon class="st7" points="90.5,90 16.9,89.9 58.7,71.2 77.9,71.2 	"/>
	<polygon class="st7" points="65.6,52.7 58.1,68.7 18.1,86.5 45.3,22.3 	"/>
</g>
</svg>
